<svg xmlns="http://www.w3.org/2000/svg" width="261.42578125" height="326.4549255371094" viewBox="-88.75289916992188 -128.93429565429688 261.42578125 326.4549255371094"><title>Neo4j Graph Visualization</title><desc>Created using Neo4j (http://www.neo4j.com/)</desc><g class="layer relationships"><g class="relationship" transform="translate(49.28879741447524 168.52062825376328) rotate(284.1056850499309)"><path class="outline" fill="#A5ABB6" stroke="none" d="M 25 0.5 L 45.1639072278458 0.5 L 45.1639072278458 -0.5 L 25 -0.5 Z M 90.7264072278458 0.5 L 110.8903144556916 0.5 L 110.8903144556916 3.5 L 117.8903144556916 0 L 110.8903144556916 -3.5 L 110.8903144556916 -0.5 L 90.7264072278458 -0.5 Z"/><text text-anchor="middle" pointer-events="none" font-size="8px" fill="#000000" x="67.9451572278458" y="3" font-family="sans-serif">ACTED_IN</text></g><g class="relationship" transform="translate(143.6728974337052 -99.93428899950415) rotate(474.6363141989723)"><path class="outline" fill="#A5ABB6" stroke="none" d="M 25 0.5 L 45.158267537955155 0.5 L 45.158267537955155 -0.5 L 25 -0.5 Z M 90.72076753795515 0.5 L 110.87903507591031 0.5 L 110.87903507591031 3.5 L 117.87903507591031 0 L 110.87903507591031 -3.5 L 110.87903507591031 -0.5 L 90.72076753795515 -0.5 Z"/><text text-anchor="middle" pointer-events="none" font-size="8px" fill="#000000" x="67.93951753795515" y="3" transform="rotate(180 67.93951753795515 0)" font-family="sans-serif">ACTED_IN</text></g><g class="relationship" transform="translate(-13.46700611719054 -77.92345213364432) rotate(407.8652812198869)"><path class="outline" fill="#A5ABB6" stroke="none" d="M 25 0.5 L 46.444384164966905 0.5 L 46.444384164966905 -0.5 L 25 -0.5 Z M 92.0068841649669 0.5 L 113.45126832993381 0.5 L 113.45126832993381 3.5 L 120.45126832993381 0 L 113.45126832993381 -3.5 L 113.45126832993381 -0.5 L 92.0068841649669 -0.5 Z"/><text text-anchor="middle" pointer-events="none" font-size="8px" fill="#000000" x="69.2256341649669" y="3" font-family="sans-serif">ACTED_IN</text></g><g class="relationship" transform="translate(-59.752896456721885 51.63320499416024) rotate(351.42460781895954)"><path class="outline" fill="#A5ABB6" stroke="none" d="M 25 0.5 L 46.464849124180276 0.5 L 46.464849124180276 -0.5 L 25 -0.5 Z M 92.02734912418028 0.5 L 113.49219824836055 0.5 L 113.49219824836055 3.5 L 120.49219824836055 0 L 113.49219824836055 -3.5 L 113.49219824836055 -0.5 L 92.02734912418028 -0.5 Z"/><text text-anchor="middle" pointer-events="none" font-size="8px" fill="#000000" x="69.24609912418028" y="3" font-family="sans-serif">ACTED_IN</text></g></g><g class="layer nodes"><g class="node" aria-label="graph-node16403" transform="translate(49.28879741447524,168.52062825376328)"><circle class="outline" cx="0" cy="0" r="25" fill="#F16667" stroke="#eb2728" stroke-width="2px"/><text class="caption" text-anchor="middle" pointer-events="none" x="0" y="0" font-size="10px" fill="#FFFFFF" font-family="sans-serif"> Winona</text><text class="caption" text-anchor="middle" pointer-events="none" x="0" y="10" font-size="10px" fill="#FFFFFF" font-family="sans-serif"> Ryder</text></g><g class="node" aria-label="graph-node3367" transform="translate(84.11277371200924,29.93876565957234)"><circle class="outline" cx="0" cy="0" r="25" fill="#C990C0" stroke="#b261a5" stroke-width="2px"/><text class="caption" text-anchor="middle" pointer-events="none" x="0" y="5" font-size="10px" fill="#FFFFFF" font-family="sans-serif"> Mermaids</text></g><g class="node" aria-label="graph-node14476" transform="translate(143.6728974337052,-99.93428899950415)"><circle class="outline" cx="0" cy="0" r="25" fill="#F16667" stroke="#eb2728" stroke-width="2px"/><text class="caption" text-anchor="middle" pointer-events="none" x="0" y="5" font-size="10px" fill="#FFFFFF" font-family="sans-serif"> Cher</text></g><g class="node" aria-label="graph-node14132" transform="translate(-13.46700611719054,-77.92345213364432)"><circle class="outline" cx="0" cy="0" r="25" fill="#F16667" stroke="#eb2728" stroke-width="2px"/><text class="caption" text-anchor="middle" pointer-events="none" x="0" y="0" font-size="10px" fill="#FFFFFF" font-family="sans-serif"> Bob</text><text class="caption" text-anchor="middle" pointer-events="none" x="0" y="10" font-size="10px" fill="#FFFFFF" font-family="sans-serif"> Hoskins</text></g><g class="node" aria-label="graph-node15028" transform="translate(-59.752896456721885,51.63320499416024)"><circle class="outline" cx="0" cy="0" r="25" fill="#F16667" stroke="#eb2728" stroke-width="2px"/><text class="caption" text-anchor="middle" pointer-events="none" x="0" y="0" font-size="10px" fill="#FFFFFF" font-family="sans-serif"> Michael</text><text class="caption" text-anchor="middle" pointer-events="none" x="0" y="10" font-size="10px" fill="#FFFFFF" font-family="sans-serif"> Schoe…</text></g></g></svg>